# 3ds Max Wavefront OBJ Exporter v0.97b - (c)2007 guruware
# File Created: 25.11.2021 13:28:34

mtllib cube2.mtl

#
# object Box002
#

v  -15.0628 0.0000 -9.0431
v  -5.0628 0.0000 -9.0431
v  -5.0628 0.0000 0.9569
v  -15.0628 0.0000 0.9569
v  -5.0628 10.0000 0.9569
v  -5.0628 10.0000 -9.0431
v  -15.0628 10.0000 -9.0431
v  -15.0628 10.0000 0.9569
# 8 vertices

vn 0.0000 -1.0000 -0.0000
vn 0.0000 1.0000 -0.0000
vn 0.0000 0.0000 1.0000
vn 1.0000 0.0000 -0.0000
vn 0.0000 0.0000 -1.0000
vn -1.0000 0.0000 -0.0000
# 6 vertex normals



vt 0.6 0.9 0.0
vt 0.2 0.9 0.0
vt 0.2 0.8 0.0
vt 0.6 0.8 0.0
vt 0.6 0.8 1.0
vt 0.6 0.9 1.0
vt 0.2 0.9 1.0
vt 0.2 0.8 1.0
# 8 texture coords

g Box002
usemtl 01___Default
s 2
f 1/1/1 2/2/1 3/3/1 4/4/1 
s 4
f 5/5/2 6/6/2 7/7/2 8/8/2 
s 8
f 3/4/3 5/1/3 8/2/3 4/3/3 
s 16
f 2/5/4 6/6/4 5/7/4 3/8/4 
s 32
f 1/5/5 7/6/5 6/7/5 2/8/5 
s 64
f 4/4/6 8/1/6 7/2/6 1/3/6 
# 6 polygons

